<?xml version="1.0" encoding="utf-8"?>
<!-- Generator: Adobe Illustrator 22.1.0, SVG Export Plug-In . SVG Version: 6.00 Build 0)  -->
<svg version="1.1" id="Calque_1" xmlns="http://www.w3.org/2000/svg" xmlns:xlink="http://www.w3.org/1999/xlink" x="0px" y="0px"
	 viewBox="0 0 30 30" style="enable-background:new 0 0 30 30;" xml:space="preserve">
<style type="text/css">
	.st0{fill:#FFFFFF;}
</style>
<path class="st0" d="M25,5.8c-0.4-1.3-1.6-2.3-3.1-2.3s-2.7,1-3.1,2.3H0v1.8h18.8c0.4,1.3,1.6,2.3,3.1,2.3s2.7-1,3.1-2.3h5V5.8H25z"
	/>
<path class="st0" d="M5.6,11.8c-1.5,0-2.7,1-3.1,2.3H0v1.8h2.6c0.4,1.3,1.6,2.3,3.1,2.3s2.7-1,3.1-2.3H30v-1.8H8.7
	C8.3,12.8,7.1,11.8,5.6,11.8z"/>
<path class="st0" d="M15.5,20.2c-1.5,0-2.7,1-3.1,2.3H0v1.8h12.4c0.4,1.3,1.6,2.3,3.1,2.3c1.5,0,2.7-1,3.1-2.3H30v-1.8H18.6
	C18.2,21.1,17,20.2,15.5,20.2z"/>
</svg>
