<svg id="Calque_1" data-name="Calque 1" xmlns="http://www.w3.org/2000/svg" viewBox="0 0 180 126.61"><defs><style>.cls-1{fill:none;stroke:#fff;stroke-miterlimit:10}.cls-2{fill:#fff}</style></defs><path class="cls-1" d="M94.12 34c.31-5 .55-8.86.55-10 0-4-1.17-6.5-5.34-6.5s-5.66 7.17-6.33 11l-.71 4.14M94.12 34c-.81 12.87-2.12 33.49-1.29 35.17 1.17 2.33 2.67-4.5 5-12.17s11.67-5.83 13-1.67-2.66 8.17-1.33 9.5 4.39-4.49 9-1c7.92 6 3.42 10.75 4.67 12 .91.92 2.93-1.68 6-.33 7.75 3.42 6.5 10.83 4.5 20.5S127 126.5 127 126.5M82.29 32.64c-1.75 10.11-6 35-9 50.36-6.66-28.5-18.66-20.5-19.5-19.17s2.84 4.34 5 7.67-2 9.83 0 14.67.67 17.16 1.17 20 11.5 19.16 11.5 19.16M94.12 34a17 17 0 10-11.83-1.34"/><path class="cls-2" d="M9.36 25.18a.85.85 0 01-.23 0 .75.75 0 01-.2-.1L.17 18a.41.41 0 01-.17-.3.4.4 0 01.17-.32l8.8-7a.72.72 0 01.19-.11.62.62 0 01.23 0 1 1 0 01.24 0 .54.54 0 01.2.1.5.5 0 01.14.15.34.34 0 010 .18.39.39 0 010 .18.66.66 0 01-.14.15L1.42 17.7l8.37 6.7a.41.41 0 01.16.23.37.37 0 010 .27.48.48 0 01-.22.2.73.73 0 01-.37.08z"/><path class="cls-2" d="M29.4 18.16H.6A.71.71 0 01.17 18a.4.4 0 01-.17-.3.43.43 0 01.17-.33.78.78 0 01.43-.13h28.8a.78.78 0 01.43.13.43.43 0 01.17.33.4.4 0 01-.17.32.71.71 0 01-.43.14zM170.64 9.74a.85.85 0 01.23 0 .78.78 0 01.2.11l8.76 7a.4.4 0 01.17.32.41.41 0 01-.17.32l-8.8 7a.52.52 0 01-.19.11.64.64 0 01-.23 0 1 1 0 01-.24 0 .75.75 0 01-.2-.1.5.5 0 01-.14-.15.42.42 0 010-.36.5.5 0 01.14-.15l8.41-6.73-8.37-6.7a.47.47 0 01-.16-.24.34.34 0 010-.26.5.5 0 01.22-.21.72.72 0 01.37.04z"/><path class="cls-2" d="M150.6 16.76h28.8a.78.78 0 01.43.13.43.43 0 01.17.33.4.4 0 01-.17.32.71.71 0 01-.43.14h-28.8a.71.71 0 01-.43-.14.4.4 0 01-.17-.32.43.43 0 01.17-.33.78.78 0 01.43-.13z"/></svg>